# File created by Blade
# Date/Time:  Wed Jan 21 14:58:19 2015
#---------------------------------------------------------
:version 1.10
:name HOM
:units
  mass 1.0
  length 1.000000
  angle deg
:documentation
     Acclaim Skeleton File
:root
   axis xyz
   order TX TY TZ RX RY RZ
   position 0.000000 0.000000 0.000000
   orientation 0 0 0
:bonedata
   begin
      id 1
      name Spine_dum
      direction 0.000000 1.000000 0.000000
      length 7.067664
      axis 0.0 0.0 0.0 xyz
   end
   begin
      id 2
      name LeftUpLeg_dum
      direction 1.000000 0.000000 0.000000
      length 4.013002
      axis 0.0 0.0 0.0 xyz
   end
   begin
      id 3
      name RightUpLeg_dum
      direction -1.000000 0.000000 0.000000
      length 4.013002
      axis 0.0 0.0 0.0 xyz
   end
   begin
      id 4
      name Spine
      direction 0.000000 1.000000 0.000000
      length 0.000000
      axis 0.0 0.0 0.0 xyz
      dof rx ry rz
   end
   begin
      id 5
      name Spine_dum1
      direction 0.000000 1.000000 0.000000
      length 15.039886
      axis 0.0 0.0 0.0 xyz
   end
   begin
      id 6
      name Spine_dum2
      direction 0.000000 1.000000 0.000000
      length 10.530368
      axis 0.0 0.0 0.0 xyz
   end
   begin
      id 7
      name Spine_dum3
      direction 0.000000 1.000000 0.000000
      length 10.530368
      axis 0.0 0.0 0.0 xyz
   end
   begin
      id 8
      name Head
      direction 0.000000 1.000000 0.000000
      length 4.527550
      axis 0.0 0.0 0.0 xyz
      dof rx ry rz
   end
   begin
      id 9
      name LeftShoulder
      direction 1.000000 0.000000 0.000000
      length 7.028855
      axis 0.0 0.0 -90.0 xyz
      dof rx ry rz
   end
   begin
      id 10
      name LeftArm
      direction 1.000000 0.000000 0.000000
      length 10.797705
      axis 0.0 0.0 -90.0 xyz
      dof rx ry rz
   end
   begin
      id 11
      name LeftForeArm
      direction 1.000000 0.000000 0.000000
      length 7.907442
      axis 0.0 0.0 -90.0 xyz
      dof ry rz rx
   end
   begin
      id 12
      name LeftHand
      direction 0.000000 0.000000 0.000000
      length 0.000000
      axis 0.0 0.0 -90.0 xyz
      dof rx ry rz
   end
   begin
      id 13
      name LeftHand_dum1
      direction 0.000000 0.000000 0.000000
      length 0.000000
      axis 0.0 0.0 -90.0 xyz
   end
   begin
      id 14
      name LeftHand_dum2
      direction 1.000000 0.000000 0.000000
      length 3.937000
      axis 0.0 0.0 -90.0 xyz
   end
   begin
      id 15
      name LeftHandThumb1
      direction 0.000000 0.000000 1.000000
      length 3.937000
      axis 0.0 0.0 -90.0 xyz
      dof rx rz ry
   end
   begin
      id 16
      name RightShoulder
      direction -1.000000 0.000000 0.000000
      length 7.028855
      axis 0.0 0.0 90.0 xyz
      dof rx ry rz
   end
   begin
      id 17
      name RightArm
      direction -1.000000 0.000000 0.000000
      length 10.797705
      axis 0.0 0.0 90.0 xyz
      dof rx ry rz
   end
   begin
      id 18
      name RightForeArm
      direction -1.000000 0.000000 0.000000
      length 7.907442
      axis 0.0 0.0 90.0 xyz
      dof ry rz rx
   end
   begin
      id 19
      name RightHand
      direction 0.000000 0.000000 0.000000
      length 0.000000
      axis 0.0 0.0 90.0 xyz
      dof rx ry rz
   end
   begin
      id 20
      name RightHand_dum1
      direction 0.000000 0.000000 0.000000
      length 0.000000
      axis 0.0 0.0 90.0 xyz
   end
   begin
      id 21
      name RightHand_dum2
      direction -1.000000 0.000000 0.000000
      length 3.937000
      axis 0.0 0.0 90.0 xyz
   end
   begin
      id 22
      name RightHandThumb1
      direction 0.000000 0.000000 1.000000
      length 3.937000
      axis 0.0 0.0 90.0 xyz
      dof rx rz ry
   end
   begin
      id 23
      name LeftUpLeg
      direction 0.000000 -1.000000 0.000000
      length 16.899758
      axis 0.0 0.0 0.0 xyz
      dof rx ry rz
   end
   begin
      id 24
      name LeftLeg
      direction 0.000000 -1.000000 0.000000
      length 17.389183
      axis 0.0 0.0 0.0 xyz
      dof rx ry rz
   end
   begin
      id 25
      name LeftFoot
      direction 0.000000 -0.258819 0.965926
      length 4.924528
      axis 15.0 0.0 0.0 xyz
      dof rx ry rz
   end
   begin
      id 26
      name LeftToeBase
      direction 0.000000 0.000000 1.000000
      length 2.952750
      axis 0.0 0.0 0.0 xyz
      dof rx ry rz
   end
   begin
      id 27
      name RightUpLeg
      direction 0.000000 -1.000000 0.000000
      length 16.899758
      axis 0.0 0.0 0.0 xyz
      dof rx ry rz
   end
   begin
      id 28
      name RightLeg
      direction 0.000000 -1.000000 0.000000
      length 17.389183
      axis 0.0 0.0 0.0 xyz
      dof rx ry rz
   end
   begin
      id 29
      name RightFoot
      direction 0.000000 -0.258819 0.965926
      length 4.924528
      axis 15.0 0.0 0.0 xyz
      dof rx ry rz
   end
   begin
      id 30
      name RightToeBase
      direction 0.000000 0.000000 1.000000
      length 2.952750
      axis 0.0 0.0 0.0 xyz
      dof rx ry rz
   end
:hierarchy
   begin
      root Spine_dum LeftUpLeg_dum RightUpLeg_dum
      Spine_dum Spine
      LeftUpLeg_dum LeftUpLeg
      RightUpLeg_dum RightUpLeg
      Spine Spine_dum1 Spine_dum2 Spine_dum3
      Spine_dum1 Head
      Spine_dum2 LeftShoulder
      Spine_dum3 RightShoulder
      LeftShoulder LeftArm
      LeftArm LeftForeArm
      LeftForeArm LeftHand
      LeftHand LeftHand_dum1 LeftHand_dum2
      LeftHand_dum1 LeftHandThumb1
      RightShoulder RightArm
      RightArm RightForeArm
      RightForeArm RightHand
      RightHand RightHand_dum1 RightHand_dum2
      RightHand_dum1 RightHandThumb1
      LeftUpLeg LeftLeg
      LeftLeg LeftFoot
      LeftFoot LeftToeBase
      RightUpLeg RightLeg
      RightLeg RightFoot
      RightFoot RightToeBase
   end

# File created by Blade
# Date/Time:  Wed Jan 21 14:58:10 2015
# Frame Rate: 120.000 fps
#------------------------------------------------------
:FULLY-SPECIFIED
:DEGREES
1
root 17.466106 35.268442 -23.378904 -171.464058 -1.759693 -178.911828
Spine -18.756995 -1.472906 2.173529
Head 9.464488 -1.609841 -0.591118
LeftShoulder -12.749629 -35.152378 21.719612
LeftArm 3.877690 5.976316 -6.970904
LeftForeArm 12.773868 -0.000000 -1.789736
LeftHand -6.004291 -0.000000 -12.639166
LeftHandThumb1 -26.253704 0.000000 33.147579
RightShoulder -11.691071 -3.703781 -11.346623
RightArm 7.688044 33.408562 10.468375
RightForeArm -36.539511 -0.000000 5.714741
RightHand -4.319972 -0.000000 13.208652
RightHandThumb1 -24.326973 -0.000000 -32.862282
LeftUpLeg 0.695489 8.409172 4.502653
LeftLeg -6.438522 -0.000000 0.000000
LeftFoot -20.620921 25.719248 -13.026201
LeftToeBase 26.870272 -0.000000 -0.000000
RightUpLeg 0.108030 -8.690394 -2.509192
RightLeg -3.832989 -0.000000 0.000000
RightFoot -20.999269 -21.188141 16.951862
RightToeBase 23.070534 -0.000000 -0.000000
2
root 17.467377 35.269338 -23.376254 -171.462679 -1.757271 -178.911853
Spine -18.753496 -1.483045 2.182908
Head 9.451943 -1.601130 -0.595684
LeftShoulder -12.737678 -35.168878 21.713716
LeftArm 3.847423 5.999437 -6.966348
LeftForeArm 12.740755 -0.000000 -1.781795
LeftHand -6.074836 -0.000000 -12.653035
LeftHandThumb1 -26.253704 0.000000 33.147579
RightShoulder -11.682379 -3.648237 -11.363305
RightArm 7.679561 33.360383 10.478181
RightForeArm -36.548627 -0.000000 5.725609
RightHand -4.395198 -0.000000 13.218091
RightHandThumb1 -24.326973 -0.000000 -32.862282
LeftUpLeg 0.691296 8.409872 4.502738
LeftLeg -6.441527 -0.000000 0.000000
LeftFoot -20.613595 25.717943 -13.049836
LeftToeBase 26.874021 -0.000000 -0.000000
RightUpLeg 0.101081 -8.683329 -2.508464
RightLeg -3.830009 -0.000000 0.000000
RightFoot -21.068731 -21.214586 16.929194
RightToeBase 23.388763 -0.000000 -0.000000
3
root 17.468984 35.269712 -23.373197 -171.453986 -1.757596 -178.907946
Spine -18.755083 -1.490281 2.188536
Head 9.429736 -1.609765 -0.595801
LeftShoulder -12.733983 -35.156304 21.717263
LeftArm 3.838315 5.976354 -6.974263
LeftForeArm 12.736780 -0.000000 -1.788000
LeftHand -6.064656 0.000000 -12.665276
LeftHandThumb1 -26.253704 0.000000 33.147579
RightShoulder -11.663524 -3.610481 -11.363928
RightArm 7.641605 33.312972 10.455567
RightForeArm -36.520648 -0.000000 5.727201
RightHand -4.406944 -0.000000 13.203716
RightHandThumb1 -24.326973 -0.000000 -32.862282
LeftUpLeg 0.674993 8.401023 4.508756
LeftLeg -6.436253 -0.000000 0.000000
LeftFoot -20.615986 25.726595 -13.041285
LeftToeBase 26.885598 -0.000000 -0.000000
RightUpLeg 0.081921 -8.683552 -2.497849
RightLeg -3.821967 -0.000000 0.000000
RightFoot -21.009229 -21.198088 16.950077
RightToeBase 23.116078 -0.000000 -0.000000
4
root 17.469796 35.270214 -23.370376 -171.450842 -1.757922 -178.908678
Spine -18.750525 -1.500608 2.191146
Head 9.406423 -1.605116 -0.586786
LeftShoulder -12.728333 -35.169436 21.725466
LeftArm 3.812948 5.990638 -6.983550
LeftForeArm 12.699816 -0.000000 -1.792699
LeftHand -6.046318 0.000000 -12.663957
LeftHandThumb1 -26.253704 0.000000 33.147579
RightShoulder -11.657102 -3.607122 -11.357533
RightArm 7.636211 33.323841 10.453306
RightForeArm -36.522270 -0.000000 5.726579
RightHand -4.392382 -0.000000 13.230008
RightHandThumb1 -24.326973 -0.000000 -32.862282
LeftUpLeg 0.668505 8.386573 4.509485
LeftLeg -6.439312 -0.000000 0.000000
LeftFoot -20.608267 25.741778 -13.044481
LeftToeBase 26.884968 -0.000000 -0.000000
RightUpLeg 0.066311 -8.695722 -2.495427
RightLeg -3.807260 -0.000000 0.000000
RightFoot -21.014124 -21.192146 16.947481
RightToeBase 23.128218 -0.000000 -0.000000
5
root 17.471090 35.270806 -23.367985 -171.450242 -1.759957 -178.904462
Spine -18.741961 -1.506924 2.195051
Head 9.377255 -1.635615 -0.566088
LeftShoulder -12.720898 -35.163821 21.726502
LeftArm 3.794657 5.958804 -6.990202
LeftForeArm 12.742976 -0.000000 -1.790711
LeftHand -6.051569 -0.000000 -12.651262
LeftHandThumb1 -26.253704 0.000000 33.147579
RightShoulder -11.655923 -3.586923 -11.353253
RightArm 7.626646 33.317138 10.447724
RightForeArm -36.509245 0.000000 5.726911
RightHand -4.321134 -0.000000 13.192108
RightHandThumb1 -24.326973 -0.000000 -32.862282
LeftUpLeg 0.664390 8.371799 4.516219
LeftLeg -6.439378 -0.000000 0.000000
LeftFoot -20.596061 25.744504 -13.053836
LeftToeBase 26.840752 -0.000000 -0.000000
RightUpLeg 0.063534 -8.691307 -2.484042
RightLeg -3.815753 -0.000000 0.000000
RightFoot -20.996967 -21.233086 16.947965
RightToeBase 23.045789 -0.000000 -0.000000
6
root 17.471982 35.271114 -23.364911 -171.448532 -1.760452 -178.902783
Spine -18.735309 -1.506224 2.200249
Head 9.353939 -1.618410 -0.549699
LeftShoulder -12.695762 -35.170039 21.714116
LeftArm 3.767056 5.958337 -6.995492
LeftForeArm 12.686649 -0.000000 -1.797372
LeftHand -6.036994 -0.000000 -12.650873
LeftHandThumb1 -26.253704 0.000000 33.147579
RightShoulder -11.647405 -3.556721 -11.363840
RightArm 7.599890 33.285253 10.440832
RightForeArm -36.504118 0.000000 5.718212
RightHand -4.300000 -0.000000 13.178640
RightHandThumb1 -24.326973 -0.000000 -32.862282
LeftUpLeg 0.660515 8.370182 4.518925
LeftLeg -6.448034 -0.000000 0.000000
LeftFoot -20.601836 25.742221 -13.057985
LeftToeBase 26.898512 -0.000000 -0.000000
RightUpLeg 0.053189 -8.697912 -2.486255
RightLeg -3.803021 -0.000000 0.000000
RightFoot -21.066091 -21.197701 16.938095
RightToeBase 23.376557 -0.000000 -0.000000
7
root 17.473934 35.271752 -23.361946 -171.446080 -1.766047 -178.905761
Spine -18.731827 -1.522471 2.197207
Head 9.345589 -1.599495 -0.541166
LeftShoulder -12.688053 -35.157944 21.707927
LeftArm 3.761713 5.919388 -6.993261
LeftForeArm 12.676533 -0.000000 -1.814580
LeftHand -6.053292 0.000000 -12.659579
LeftHandThumb1 -26.253704 0.000000 33.147579
RightShoulder -11.637795 -3.573553 -11.360797
RightArm 7.602996 33.326363 10.459829
RightForeArm -36.498739 -0.000000 5.690716
RightHand -4.264294 -0.000000 13.175688
RightHandThumb1 -24.326973 -0.000000 -32.862282
LeftUpLeg 0.651982 8.343411 4.520317
LeftLeg -6.445750 -0.000000 0.000000
LeftFoot -20.586110 25.758041 -13.057391
LeftToeBase 26.870076 -0.000000 -0.000000
RightUpLeg 0.047640 -8.686907 -2.485008
RightLeg -3.803456 -0.000000 0.000000
RightFoot -21.070293 -21.223282 16.938099
RightToeBase 23.412860 -0.000000 -0.000000
